<?xml version="1.0" encoding="utf-8"?>
<!-- Generator: Adobe Illustrator 23.0.0, SVG Export Plug-In . SVG Version: 6.00 Build 0)  -->
<svg version="1.1" id="Capa_1" xmlns="http://www.w3.org/2000/svg" xmlns:xlink="http://www.w3.org/1999/xlink" x="0px" y="0px"
	 viewBox="0 0 500 653" style="enable-background:new 0 0 500 653;" xml:space="preserve">
<style type="text/css">
	.st0{fill:#C15952;}
	.st1{fill:#333333;}
</style>
<path class="st0" d="M204.61,392.64c9.67,16.36,18.64,37.29,23.57,55.78c2.49,9.32,3.97,18.02,3.97,25.18
	c0,6.77-0.56,13.47-1.65,20.07l34.49-54.95c2.86-4.06,5.41-8.15,7.67-12.24l17.99-28.67c35.68-56.14-2.65-120.09-7.14-127.19v-0.01
	c0,0-55.25-91.38-55.45-91.7c-8.31-13.94-14.25-26.45-18.37-37.56c-6.02-16.68-1.94-28.13,3.22-35.23
	c5.32-6.29,10.01-9.12,10.01-9.12c-34.01,8.35-41.07,40.15-41.07,40.15h0.02c-14.48,40.98,10.15,85.46,15.52,94.38l14.4,22.25
	l31.43,48.79c1.34,2.24,2.59,4.6,3.97,7.51c8.27,14.12,12.63,30.24,12.63,46.64c0,9.04-1.33,18.03-3.94,26.71l-4.89,16.25
	c0,0-0.59-4.03-1.19-8.29c-0.56-5.63-1.46-11.24-2.82-16.79c-1.44-5.95-3.39-11.81-5.91-17.51c-0.21-0.47-0.42-0.93-0.64-1.38
	c-0.41-0.88-0.83-1.74-1.25-2.61c-0.5-1-1.03-1.98-1.55-2.97c-0.22-0.4-0.44-0.79-0.66-1.18c-0.72-1.25-1.46-2.52-2.23-3.74
	l-51.03-80.81c-0.78-1.25-6-9.83-6-9.83c-12.95-21.75-19.42-40.61-22.43-55.84c-1.32-6.69-0.45-13.67,2.8-19.67
	c0.84-1.55,1.48-2.43,1.48-2.43c-16.39,11.62-21.81,24.51-21.81,24.51c-0.6,1.12-1.18,2.25-1.73,3.43
	c-20.4,42.8,9.55,93.34,15.23,102.79C151.61,307.94,193.8,374.36,204.61,392.64"/>
<path class="st0" d="M336.4,363.45l1.72-2.69l9.41-14.62l7.14-11.1c14.81-26.02,14.53-46.64,0.31-66.61l-13.38-18.77
	c0,0-12.85-17.13-16.32-26.18c-4.02-11.25-3.8-18.94-1.73-24.22c0.14-0.36,0.29-0.71,0.45-1.04c0.11-0.25,0.18-0.38,0.18-0.38
	c4.57-9.22,15.06-9.96,15.06-9.96c-16.38-5.8-41.02-0.14-47.55,23.19c-7.48,26.7,1.82,47.71,18.92,72.85l10.61,15.23
	c1.26,1.96,2.32,4.02,3.24,6.18c15.89,37.61-17.35,103.66-17.35,103.66l0.68-1.05c0.07-0.12,0.15-0.23,0.23-0.37l0.69-1.05
	c0.34-0.53,0.73-1.16,1.18-1.84l2.43-3.76c0.31-0.5,0.64-1.01,0.98-1.52l0.76-1.18c0.29-0.46,0.59-0.92,0.9-1.39l1.53-2.39
	c0.64-0.99,1.28-1.99,1.95-3.04l6.85-10.64l0.4-0.61l9.01-14.02C335.25,365.23,335.83,364.33,336.4,363.45"/>
</svg>
